<svg xmlns="http://www.w3.org/2000/svg">
  <!-- Window Controls -->
  <symbol id="close" viewBox="0 0 24 24">
    <path fill="none" stroke="currentColor" stroke-width="2" stroke-linecap="round" d="M18 6L6 18M6 6l12 12"/>
  </symbol>
  <symbol id="minimize" viewBox="0 0 24 24">
    <path fill="none" stroke="currentColor" stroke-width="2" stroke-linecap="round" d="M5 12h14"/>
  </symbol>
  <symbol id="maximize" viewBox="0 0 24 24">
    <rect x="4" y="4" width="16" height="16" rx="2" fill="none" stroke="currentColor" stroke-width="2"/>
  </symbol>
  <symbol id="restore" viewBox="0 0 24 24">
    <rect x="3" y="7" width="14" height="14" rx="2" fill="none" stroke="currentColor" stroke-width="2"/>
    <path fill="none" stroke="currentColor" stroke-width="2" d="M7 7V5a2 2 0 012-2h10a2 2 0 012 2v10a2 2 0 01-2 2h-2"/>
  </symbol>

  <!-- Files & Folders -->
  <symbol id="folder" viewBox="0 0 24 24">
    <path fill="currentColor" d="M4 4a2 2 0 00-2 2v12a2 2 0 002 2h16a2 2 0 002-2V8a2 2 0 00-2-2h-8l-2-2H4z"/>
  </symbol>
  <symbol id="folder-open" viewBox="0 0 24 24">
    <path fill="currentColor" d="M4 4a2 2 0 00-2 2v12a2 2 0 002 2h16a2 2 0 002-2V8a2 2 0 00-2-2h-8l-2-2H4z" opacity="0.3"/>
    <path fill="currentColor" d="M2.5 10h19l-2 10H4.5l-2-10z"/>
  </symbol>
  <symbol id="file" viewBox="0 0 24 24">
    <path fill="none" stroke="currentColor" stroke-width="2" d="M14 2H6a2 2 0 00-2 2v16a2 2 0 002 2h12a2 2 0 002-2V8l-6-6z"/>
    <polyline fill="none" stroke="currentColor" stroke-width="2" points="14 2 14 8 20 8"/>
  </symbol>
  <symbol id="text-file" viewBox="0 0 24 24">
    <path fill="none" stroke="currentColor" stroke-width="2" d="M14 2H6a2 2 0 00-2 2v16a2 2 0 002 2h12a2 2 0 002-2V8l-6-6z"/>
    <polyline fill="none" stroke="currentColor" stroke-width="2" points="14 2 14 8 20 8"/>
    <line stroke="currentColor" stroke-width="2" x1="8" y1="13" x2="16" y2="13"/>
    <line stroke="currentColor" stroke-width="2" x1="8" y1="17" x2="13" y2="17"/>
  </symbol>

  <!-- Apps -->
  <symbol id="terminal" viewBox="0 0 24 24">
    <rect x="2" y="3" width="20" height="18" rx="2" fill="none" stroke="currentColor" stroke-width="2"/>
    <polyline fill="none" stroke="currentColor" stroke-width="2" stroke-linecap="round" points="6 9 10 12 6 15"/>
    <line stroke="currentColor" stroke-width="2" stroke-linecap="round" x1="12" y1="15" x2="18" y2="15"/>
  </symbol>
  <symbol id="settings" viewBox="0 0 24 24">
    <circle cx="12" cy="12" r="3" fill="none" stroke="currentColor" stroke-width="2"/>
    <path fill="none" stroke="currentColor" stroke-width="2" d="M19.4 15a1.65 1.65 0 00.33 1.82l.06.06a2 2 0 01-2.83 2.83l-.06-.06a1.65 1.65 0 00-1.82-.33 1.65 1.65 0 00-1 1.51V21a2 2 0 01-4 0v-.09A1.65 1.65 0 009 19.4a1.65 1.65 0 00-1.82.33l-.06.06a2 2 0 01-2.83-2.83l.06-.06A1.65 1.65 0 004.68 15a1.65 1.65 0 00-1.51-1H3a2 2 0 010-4h.09A1.65 1.65 0 004.6 9a1.65 1.65 0 00-.33-1.82l-.06-.06a2 2 0 012.83-2.83l.06.06A1.65 1.65 0 009 4.68a1.65 1.65 0 001-1.51V3a2 2 0 014 0v.09a1.65 1.65 0 001 1.51 1.65 1.65 0 001.82-.33l.06-.06a2 2 0 012.83 2.83l-.06.06A1.65 1.65 0 0019.4 9a1.65 1.65 0 001.51 1H21a2 2 0 010 4h-.09a1.65 1.65 0 00-1.51 1z"/>
  </symbol>

  <!-- System Tray -->
  <symbol id="wifi" viewBox="0 0 24 24">
    <path fill="none" stroke="currentColor" stroke-width="2" stroke-linecap="round" d="M5 12.55a11 11 0 0114 0"/>
    <path fill="none" stroke="currentColor" stroke-width="2" stroke-linecap="round" d="M8.53 16.11a6 6 0 016.95 0"/>
    <path fill="none" stroke="currentColor" stroke-width="2" stroke-linecap="round" d="M1.42 9a16 16 0 0121.16 0"/>
    <circle cx="12" cy="20" r="1" fill="currentColor"/>
  </symbol>
  <symbol id="wifi-off" viewBox="0 0 24 24">
    <path fill="none" stroke="currentColor" stroke-width="2" stroke-linecap="round" d="M1 1l22 22"/>
    <path fill="none" stroke="currentColor" stroke-width="2" stroke-linecap="round" d="M16.72 11.06A11 11 0 0119 12.55"/>
    <path fill="none" stroke="currentColor" stroke-width="2" stroke-linecap="round" d="M5 12.55a11 11 0 013.18-1.96"/>
    <path fill="none" stroke="currentColor" stroke-width="2" stroke-linecap="round" d="M10.71 5.05A16 16 0 0122.58 9"/>
    <path fill="none" stroke="currentColor" stroke-width="2" stroke-linecap="round" d="M1.42 9a16 16 0 014.65-2.97"/>
    <circle cx="12" cy="20" r="1" fill="currentColor"/>
  </symbol>
  <symbol id="volume-high" viewBox="0 0 24 24">
    <polygon fill="none" stroke="currentColor" stroke-width="2" points="11 5 6 9 2 9 2 15 6 15 11 19 11 5"/>
    <path fill="none" stroke="currentColor" stroke-width="2" stroke-linecap="round" d="M19.07 4.93a10 10 0 010 14.14"/>
    <path fill="none" stroke="currentColor" stroke-width="2" stroke-linecap="round" d="M15.54 8.46a5 5 0 010 7.07"/>
  </symbol>
  <symbol id="volume-low" viewBox="0 0 24 24">
    <polygon fill="none" stroke="currentColor" stroke-width="2" points="11 5 6 9 2 9 2 15 6 15 11 19 11 5"/>
    <path fill="none" stroke="currentColor" stroke-width="2" stroke-linecap="round" d="M15.54 8.46a5 5 0 010 7.07"/>
  </symbol>
  <symbol id="volume-mute" viewBox="0 0 24 24">
    <polygon fill="none" stroke="currentColor" stroke-width="2" points="11 5 6 9 2 9 2 15 6 15 11 19 11 5"/>
    <line stroke="currentColor" stroke-width="2" stroke-linecap="round" x1="23" y1="9" x2="17" y2="15"/>
    <line stroke="currentColor" stroke-width="2" stroke-linecap="round" x1="17" y1="9" x2="23" y2="15"/>
  </symbol>
  <symbol id="battery" viewBox="0 0 24 24">
    <rect x="1" y="6" width="18" height="12" rx="2" fill="none" stroke="currentColor" stroke-width="2"/>
    <line stroke="currentColor" stroke-width="2" x1="23" y1="10" x2="23" y2="14"/>
    <rect x="3" y="8" width="12" height="8" rx="1" fill="currentColor" opacity="0.3"/>
  </symbol>
  <symbol id="battery-low" viewBox="0 0 24 24">
    <rect x="1" y="6" width="18" height="12" rx="2" fill="none" stroke="currentColor" stroke-width="2"/>
    <line stroke="currentColor" stroke-width="2" x1="23" y1="10" x2="23" y2="14"/>
    <rect x="3" y="8" width="4" height="8" rx="1" fill="currentColor" opacity="0.3"/>
  </symbol>
  <symbol id="power" viewBox="0 0 24 24">
    <path fill="none" stroke="currentColor" stroke-width="2" stroke-linecap="round" d="M18.36 6.64a9 9 0 11-12.73 0"/>
    <line stroke="currentColor" stroke-width="2" stroke-linecap="round" x1="12" y1="2" x2="12" y2="12"/>
  </symbol>

  <!-- Navigation -->
  <symbol id="search" viewBox="0 0 24 24">
    <circle cx="11" cy="11" r="8" fill="none" stroke="currentColor" stroke-width="2"/>
    <line stroke="currentColor" stroke-width="2" stroke-linecap="round" x1="21" y1="21" x2="16.65" y2="16.65"/>
  </symbol>
  <symbol id="chevron-right" viewBox="0 0 24 24">
    <polyline fill="none" stroke="currentColor" stroke-width="2" stroke-linecap="round" stroke-linejoin="round" points="9 18 15 12 9 6"/>
  </symbol>
  <symbol id="chevron-down" viewBox="0 0 24 24">
    <polyline fill="none" stroke="currentColor" stroke-width="2" stroke-linecap="round" stroke-linejoin="round" points="6 9 12 15 18 9"/>
  </symbol>
  <symbol id="chevron-left" viewBox="0 0 24 24">
    <polyline fill="none" stroke="currentColor" stroke-width="2" stroke-linecap="round" stroke-linejoin="round" points="15 18 9 12 15 6"/>
  </symbol>
  <symbol id="arrow-left" viewBox="0 0 24 24">
    <line stroke="currentColor" stroke-width="2" stroke-linecap="round" x1="19" y1="12" x2="5" y2="12"/>
    <polyline fill="none" stroke="currentColor" stroke-width="2" stroke-linecap="round" stroke-linejoin="round" points="12 19 5 12 12 5"/>
  </symbol>
  <symbol id="arrow-right" viewBox="0 0 24 24">
    <line stroke="currentColor" stroke-width="2" stroke-linecap="round" x1="5" y1="12" x2="19" y2="12"/>
    <polyline fill="none" stroke="currentColor" stroke-width="2" stroke-linecap="round" stroke-linejoin="round" points="12 5 19 12 12 19"/>
  </symbol>
  <symbol id="home" viewBox="0 0 24 24">
    <path fill="none" stroke="currentColor" stroke-width="2" stroke-linecap="round" stroke-linejoin="round" d="M3 9l9-7 9 7v11a2 2 0 01-2 2H5a2 2 0 01-2-2z"/>
    <polyline fill="none" stroke="currentColor" stroke-width="2" stroke-linecap="round" stroke-linejoin="round" points="9 22 9 12 15 12 15 22"/>
  </symbol>

  <!-- Misc -->
  <symbol id="grid" viewBox="0 0 24 24">
    <rect x="3" y="3" width="7" height="7" rx="1.5" fill="currentColor"/>
    <rect x="14" y="3" width="7" height="7" rx="1.5" fill="currentColor"/>
    <rect x="3" y="14" width="7" height="7" rx="1.5" fill="currentColor"/>
    <rect x="14" y="14" width="7" height="7" rx="1.5" fill="currentColor"/>
  </symbol>
  <symbol id="brightness" viewBox="0 0 24 24">
    <circle cx="12" cy="12" r="5" fill="none" stroke="currentColor" stroke-width="2"/>
    <line stroke="currentColor" stroke-width="2" stroke-linecap="round" x1="12" y1="1" x2="12" y2="3"/>
    <line stroke="currentColor" stroke-width="2" stroke-linecap="round" x1="12" y1="21" x2="12" y2="23"/>
    <line stroke="currentColor" stroke-width="2" stroke-linecap="round" x1="4.22" y1="4.22" x2="5.64" y2="5.64"/>
    <line stroke="currentColor" stroke-width="2" stroke-linecap="round" x1="18.36" y1="18.36" x2="19.78" y2="19.78"/>
    <line stroke="currentColor" stroke-width="2" stroke-linecap="round" x1="1" y1="12" x2="3" y2="12"/>
    <line stroke="currentColor" stroke-width="2" stroke-linecap="round" x1="21" y1="12" x2="23" y2="12"/>
    <line stroke="currentColor" stroke-width="2" stroke-linecap="round" x1="4.22" y1="19.78" x2="5.64" y2="18.36"/>
    <line stroke="currentColor" stroke-width="2" stroke-linecap="round" x1="18.36" y1="5.64" x2="19.78" y2="4.22"/>
  </symbol>
  <symbol id="bluetooth" viewBox="0 0 24 24">
    <polyline fill="none" stroke="currentColor" stroke-width="2" stroke-linecap="round" stroke-linejoin="round" points="6.5 6.5 17.5 17.5 12 23 12 1 17.5 6.5 6.5 17.5"/>
  </symbol>
  <symbol id="bell" viewBox="0 0 24 24">
    <path fill="none" stroke="currentColor" stroke-width="2" d="M18 8A6 6 0 006 8c0 7-3 9-3 9h18s-3-2-3-9"/>
    <path fill="none" stroke="currentColor" stroke-width="2" d="M13.73 21a2 2 0 01-3.46 0"/>
  </symbol>
  <symbol id="check" viewBox="0 0 24 24">
    <polyline fill="none" stroke="currentColor" stroke-width="2" stroke-linecap="round" stroke-linejoin="round" points="20 6 9 17 4 12"/>
  </symbol>
  <symbol id="plus" viewBox="0 0 24 24">
    <line stroke="currentColor" stroke-width="2" stroke-linecap="round" x1="12" y1="5" x2="12" y2="19"/>
    <line stroke="currentColor" stroke-width="2" stroke-linecap="round" x1="5" y1="12" x2="19" y2="12"/>
  </symbol>
  <symbol id="trash" viewBox="0 0 24 24">
    <polyline fill="none" stroke="currentColor" stroke-width="2" stroke-linecap="round" points="3 6 5 6 21 6"/>
    <path fill="none" stroke="currentColor" stroke-width="2" stroke-linecap="round" d="M19 6v14a2 2 0 01-2 2H7a2 2 0 01-2-2V6m3 0V4a2 2 0 012-2h4a2 2 0 012 2v2"/>
  </symbol>
  <symbol id="copy" viewBox="0 0 24 24">
    <rect x="9" y="9" width="13" height="13" rx="2" fill="none" stroke="currentColor" stroke-width="2"/>
    <path fill="none" stroke="currentColor" stroke-width="2" d="M5 15H4a2 2 0 01-2-2V4a2 2 0 012-2h9a2 2 0 012 2v1"/>
  </symbol>
  <symbol id="edit" viewBox="0 0 24 24">
    <path fill="none" stroke="currentColor" stroke-width="2" d="M11 4H4a2 2 0 00-2 2v14a2 2 0 002 2h14a2 2 0 002-2v-7"/>
    <path fill="none" stroke="currentColor" stroke-width="2" d="M18.5 2.5a2.12 2.12 0 013 3L12 15l-4 1 1-4 9.5-9.5z"/>
  </symbol>
  <symbol id="save" viewBox="0 0 24 24">
    <path fill="none" stroke="currentColor" stroke-width="2" d="M19 21H5a2 2 0 01-2-2V5a2 2 0 012-2h11l5 5v11a2 2 0 01-2 2z"/>
    <polyline fill="none" stroke="currentColor" stroke-width="2" points="17 21 17 13 7 13 7 21"/>
    <polyline fill="none" stroke="currentColor" stroke-width="2" points="7 3 7 8 15 8"/>
  </symbol>
  <symbol id="list" viewBox="0 0 24 24">
    <line stroke="currentColor" stroke-width="2" stroke-linecap="round" x1="8" y1="6" x2="21" y2="6"/>
    <line stroke="currentColor" stroke-width="2" stroke-linecap="round" x1="8" y1="12" x2="21" y2="12"/>
    <line stroke="currentColor" stroke-width="2" stroke-linecap="round" x1="8" y1="18" x2="21" y2="18"/>
    <circle cx="4" cy="6" r="1" fill="currentColor"/>
    <circle cx="4" cy="12" r="1" fill="currentColor"/>
    <circle cx="4" cy="18" r="1" fill="currentColor"/>
  </symbol>
  <symbol id="grid-view" viewBox="0 0 24 24">
    <rect x="3" y="3" width="7" height="7" rx="1" fill="none" stroke="currentColor" stroke-width="2"/>
    <rect x="14" y="3" width="7" height="7" rx="1" fill="none" stroke="currentColor" stroke-width="2"/>
    <rect x="3" y="14" width="7" height="7" rx="1" fill="none" stroke="currentColor" stroke-width="2"/>
    <rect x="14" y="14" width="7" height="7" rx="1" fill="none" stroke="currentColor" stroke-width="2"/>
  </symbol>
  <symbol id="image" viewBox="0 0 24 24">
    <rect x="3" y="3" width="18" height="18" rx="2" fill="none" stroke="currentColor" stroke-width="2"/>
    <circle cx="8.5" cy="8.5" r="1.5" fill="currentColor"/>
    <polyline fill="none" stroke="currentColor" stroke-width="2" points="21 15 16 10 5 21"/>
  </symbol>
  <symbol id="download" viewBox="0 0 24 24">
    <path fill="none" stroke="currentColor" stroke-width="2" stroke-linecap="round" d="M21 15v4a2 2 0 01-2 2H5a2 2 0 01-2-2v-4"/>
    <polyline fill="none" stroke="currentColor" stroke-width="2" stroke-linecap="round" stroke-linejoin="round" points="7 10 12 15 17 10"/>
    <line stroke="currentColor" stroke-width="2" stroke-linecap="round" x1="12" y1="15" x2="12" y2="3"/>
  </symbol>
  <symbol id="info" viewBox="0 0 24 24">
    <circle cx="12" cy="12" r="10" fill="none" stroke="currentColor" stroke-width="2"/>
    <line stroke="currentColor" stroke-width="2" x1="12" y1="16" x2="12" y2="12"/>
    <circle cx="12" cy="8" r="0.5" fill="currentColor" stroke="currentColor" stroke-width="1"/>
  </symbol>

  <!-- OSINT Search -->
  <symbol id="osint-search" viewBox="0 0 339.921 339.921">
    <path fill="currentColor" d="M335.165,292.071l-81.385-84.077c-5.836-6.032-13.13-8.447-16.29-5.363c-3.171,3.062-10.47,0.653-16.306-5.379l-1.164-1.207c36.425-47.907,32.89-116.499-10.851-160.24c-47.739-47.739-125.142-47.739-172.875,0c-47.739,47.739-47.739,125.131,0,172.87c44.486,44.492,114.699,47.472,162.704,9.045l0.511,0.533c5.825,6.032,7.995,13.402,4.814,16.469c-3.166,3.068-1.012,10.443,4.83,16.464l81.341,84.11c5.836,6.016,15.452,6.195,21.49,0.354l22.828-22.088C340.827,307.735,340.99,298.125,335.165,292.071z M182.306,181.81c-32.852,32.857-86.312,32.857-119.159,0.011c-32.852-32.852-32.847-86.318,0-119.164c32.847-32.852,86.307-32.847,119.148,0.005C215.152,95.509,215.152,148.964,182.306,181.81z"/>
  </symbol>

  <!-- Link Graph -->
  <symbol id="link-graph" viewBox="0 0 16 16">
    <path fill-rule="evenodd" clip-rule="evenodd" d="M2.5 5.16065C2.5 4.98122 2.59614 4.81555 2.75193 4.72653L7.75193 1.86938C7.90565 1.78155 8.09435 1.78155 8.24807 1.86938L13.2481 4.72653C13.4039 4.81555 13.5 4.98122 13.5 5.16065V10.8394C13.5 11.0188 13.4039 11.1845 13.2481 11.2735L8.24807 14.1306C8.09435 14.2185 7.90565 14.2185 7.75193 14.1306L2.75193 11.2735C2.59614 11.1845 2.5 11.0188 2.5 10.8394V5.16065ZM1 10.8394C1 11.5571 1.38457 12.2198 2.00772 12.5758L7.00772 15.433C7.62259 15.7843 8.37741 15.7843 8.99228 15.433L13.9923 12.5758C14.6154 12.2198 15 11.5571 15 10.8394V5.16065C15 4.44293 14.6154 3.78025 13.9923 3.42416L8.99228 0.567019C8.37741 0.215667 7.62259 0.215667 7.00772 0.567019L2.00772 3.42416C1.38457 3.78025 1 4.44293 1 5.16065V10.8394Z" fill="currentColor"/>
    <path fill-rule="evenodd" clip-rule="evenodd" d="M8 0.270645L1.18226 11.75H14.8177L8 0.270645ZM3.81774 10.25L8 3.20812L12.1823 10.25H3.81774Z" fill="currentColor"/>
  </symbol>

  <!-- Mail / Messaging -->
  <symbol id="mail" viewBox="0 0 24 24">
    <rect x="2" y="4" width="20" height="16" rx="2" fill="none" stroke="currentColor" stroke-width="2"/>
    <polyline fill="none" stroke="currentColor" stroke-width="2" stroke-linecap="round" stroke-linejoin="round" points="22 6 12 13 2 6"/>
  </symbol>

  <!-- Screenshot -->
  <symbol id="camera" viewBox="0 0 24 24">
    <path fill="none" stroke="currentColor" stroke-width="2" stroke-linejoin="round" d="M23 19a2 2 0 01-2 2H3a2 2 0 01-2-2V8a2 2 0 012-2h4l2-3h6l2 3h4a2 2 0 012 2z"/>
    <circle cx="12" cy="13" r="4" fill="none" stroke="currentColor" stroke-width="2"/>
  </symbol>

  <!-- Social Platform Icons -->
  <symbol id="platform-instagram" viewBox="0 0 24 24">
    <rect x="2" y="2" width="20" height="20" rx="5" fill="none" stroke="currentColor" stroke-width="2"/>
    <circle cx="12" cy="12" r="5" fill="none" stroke="currentColor" stroke-width="2"/>
    <circle cx="17.5" cy="6.5" r="1.5" fill="currentColor"/>
  </symbol>
  <symbol id="platform-linkedin" viewBox="0 0 24 24">
    <rect x="2" y="2" width="20" height="20" rx="3" fill="none" stroke="currentColor" stroke-width="2"/>
    <line stroke="currentColor" stroke-width="2" x1="8" y1="11" x2="8" y2="17"/>
    <line stroke="currentColor" stroke-width="2" x1="8" y1="7" x2="8" y2="7.01"/>
    <circle cx="8" cy="7" r="1" fill="currentColor"/>
    <path fill="none" stroke="currentColor" stroke-width="2" d="M12 17v-4c0-1.66 1.34-3 3-3s2 .67 2 2v5"/>
  </symbol>
  <symbol id="platform-twitter" viewBox="0 0 24 24">
    <path fill="currentColor" d="M18.244 2.25h3.308l-7.227 8.26 8.502 11.24H16.17l-4.714-6.231-5.401 6.231H2.763l7.733-8.835L2.25 2.25H8.08l4.713 6.231 5.451-6.231zm-1.161 17.52h1.833L7.084 4.126H5.117z"/>
  </symbol>
  <symbol id="platform-facebook" viewBox="0 0 24 24">
    <path fill="none" stroke="currentColor" stroke-width="2" d="M18 2h-3a5 5 0 00-5 5v3H7v4h3v8h4v-8h3l1-4h-4V7a1 1 0 011-1h3z"/>
  </symbol>
  <symbol id="platform-github" viewBox="0 0 24 24">
    <path fill="currentColor" fill-rule="evenodd" clip-rule="evenodd" d="M12 2C6.477 2 2 6.484 2 12.017c0 4.425 2.865 8.18 6.839 9.504.5.092.682-.217.682-.483 0-.237-.008-.868-.013-1.703-2.782.605-3.369-1.343-3.369-1.343-.454-1.158-1.11-1.466-1.11-1.466-.908-.62.069-.608.069-.608 1.003.07 1.531 1.032 1.531 1.032.892 1.53 2.341 1.088 2.91.832.092-.647.35-1.088.636-1.338-2.22-.253-4.555-1.113-4.555-4.951 0-1.093.39-1.988 1.029-2.688-.103-.253-.446-1.272.098-2.65 0 0 .84-.27 2.75 1.026A9.564 9.564 0 0112 6.844c.85.004 1.705.115 2.504.337 1.909-1.296 2.747-1.027 2.747-1.027.546 1.379.202 2.398.1 2.651.64.7 1.028 1.595 1.028 2.688 0 3.848-2.339 4.695-4.566 4.943.359.309.678.92.678 1.855 0 1.338-.012 2.419-.012 2.747 0 .268.18.58.688.482A10.019 10.019 0 0022 12.017C22 6.484 17.522 2 12 2z"/>
  </symbol>
  <symbol id="platform-discord" viewBox="0 0 24 24">
    <path fill="currentColor" d="M20.317 4.37a19.791 19.791 0 0 0-4.885-1.515.074.074 0 0 0-.079.037c-.21.375-.444.864-.608 1.25a18.27 18.27 0 0 0-5.487 0 12.64 12.64 0 0 0-.617-1.25.077.077 0 0 0-.079-.037A19.736 19.736 0 0 0 3.677 4.37a.07.07 0 0 0-.032.027C.533 9.046-.32 13.58.099 18.057c.002.022.014.043.03.056a19.9 19.9 0 0 0 5.993 3.03.078.078 0 0 0 .084-.028c.462-.63.874-1.295 1.226-1.994a.076.076 0 0 0-.041-.106 13.107 13.107 0 0 1-1.872-.892.077.077 0 0 1-.008-.128 10.2 10.2 0 0 0 .372-.292.074.074 0 0 1 .077-.01c3.928 1.793 8.18 1.793 12.062 0a.074.074 0 0 1 .078.01c.12.098.246.198.373.292a.077.077 0 0 1-.006.127 12.299 12.299 0 0 1-1.873.892.077.077 0 0 0-.041.107c.36.698.772 1.362 1.225 1.993a.076.076 0 0 0 .084.028 19.839 19.839 0 0 0 6.002-3.03.077.077 0 0 0 .032-.054c.5-5.177-.838-9.674-3.549-13.66a.061.061 0 0 0-.031-.03zM8.02 15.33c-1.183 0-2.157-1.085-2.157-2.419 0-1.333.956-2.419 2.157-2.419 1.21 0 2.176 1.096 2.157 2.42 0 1.333-.956 2.418-2.157 2.418zm7.975 0c-1.183 0-2.157-1.085-2.157-2.419 0-1.333.955-2.419 2.157-2.419 1.21 0 2.176 1.096 2.157 2.42 0 1.333-.946 2.418-2.157 2.418z"/>
  </symbol>
  <symbol id="platform-tiktok" viewBox="0 0 24 24">
    <path fill="none" stroke="currentColor" stroke-width="2" d="M12 3v12a4 4 0 11-3-3.87"/>
    <path fill="none" stroke="currentColor" stroke-width="2" d="M12 3c0 0 1 3 5 4"/>
  </symbol>
  <symbol id="platform-snapchat" viewBox="0 0 24 24">
    <path fill="currentColor" d="M12.004 2c-1.667 0-4.55.464-4.55 4.03v.37c0 .397-.018.785-.05 1.16-.302.12-.638.19-.988.19-.29 0-.554-.053-.766-.14-.148-.061-.297-.022-.36.09-.064.11-.026.254.093.343.486.364 1.073.595 1.722.668.12.624.457 1.07.822 1.07.065 0 .13-.01.194-.027.294-.08.59-.12.876-.12.32 0 .626.048.909.14.254.082.546.125.85.125.303 0 .594-.043.847-.125.283-.092.59-.14.91-.14.286 0 .58.04.875.12.064.017.13.027.194.027.365 0 .703-.446.822-1.07.65-.073 1.236-.304 1.722-.668.12-.09.157-.233.093-.343-.063-.112-.212-.151-.36-.09-.212.087-.477.14-.766.14-.35 0-.686-.07-.988-.19a14.87 14.87 0 0 1-.05-1.16v-.37C16.554 2.464 13.67 2 12.004 2zm0 14.6c-1.35 0-2.59-.386-3.634-1.05-.245.045-.497.068-.748.068-.78 0-1.54-.2-2.154-.553-.098-.056-.21-.015-.248.093-.04.107.015.233.126.3.74.437 1.61.7 2.556.745.217.46.647.79 1.15.79.127 0 .255-.022.378-.065.463-.162.965-.248 1.574-.248.61 0 1.11.086 1.575.248.123.043.25.065.378.065.503 0 .933-.33 1.15-.79.946-.045 1.816-.308 2.556-.745.112-.067.166-.193.126-.3-.038-.108-.15-.149-.248-.093-.614.354-1.374.553-2.154.553-.25 0-.503-.023-.748-.067A6.535 6.535 0 0 1 12.004 16.6z"/>
  </symbol>
</svg>
